<svg xmlns="http://www.w3.org/2000/svg"  viewBox="0 0 24 24" width="48px" height="48px" baseProfile="basic"><linearGradient id="kV1e2TML7qZu5d-z5h9c3a" x1="3.879" x2="20.121" y1="3.879" y2="20.121" gradientUnits="userSpaceOnUse"><stop offset="0" stop-color="#fff" stop-opacity=".6"/><stop offset="1" stop-color="#fff" stop-opacity=".3"/></linearGradient><path fill="url(#kV1e2TML7qZu5d-z5h9c3a)" d="M19,20H5c-1.657,0-3-1.343-3-3V7c0-1.657,1.343-3,3-3h14c1.657,0,3,1.343,3,3v10 C22,18.657,20.657,20,19,20z"/><linearGradient id="kV1e2TML7qZu5d-z5h9c3b" x1="3.879" x2="20.121" y1="3.879" y2="20.121" gradientUnits="userSpaceOnUse"><stop offset="0" stop-color="#fff" stop-opacity=".6"/><stop offset=".493" stop-color="#fff" stop-opacity="0"/><stop offset=".997" stop-color="#fff" stop-opacity=".3"/></linearGradient><path fill="url(#kV1e2TML7qZu5d-z5h9c3b)" d="M19,4.5c1.378,0,2.5,1.122,2.5,2.5v10 c0,1.378-1.122,2.5-2.5,2.5H5c-1.378,0-2.5-1.122-2.5-2.5V7c0-1.378,1.122-2.5,2.5-2.5H19 M19,4H5C3.343,4,2,5.343,2,7v10 c0,1.657,1.343,3,3,3h14c1.657,0,3-1.343,3-3V7C22,5.343,20.657,4,19,4L19,4z"/><linearGradient id="kV1e2TML7qZu5d-z5h9c3c" x1="6.293" x2="9.707" y1="12.293" y2="15.707" gradientUnits="userSpaceOnUse"><stop offset="0" stop-color="#fff" stop-opacity=".7"/><stop offset=".519" stop-color="#fff" stop-opacity=".45"/><stop offset="1" stop-color="#fff" stop-opacity=".55"/></linearGradient><path fill="url(#kV1e2TML7qZu5d-z5h9c3c)" d="M10,13c-0.186,0-3.814,0-4,0	c-0.552,0-1,0.448-1,1c0,0.552,0.448,1,1,1c0.186,0,3.814,0,4,0c0.552,0,1-0.448,1-1C11,13.448,10.552,13,10,13z"/><linearGradient id="kV1e2TML7qZu5d-z5h9c3d" x1="6.25" x2="17.75" y1="3.75" y2="15.25" gradientUnits="userSpaceOnUse"><stop offset="0" stop-color="#fff" stop-opacity=".7"/><stop offset=".519" stop-color="#fff" stop-opacity=".45"/><stop offset="1" stop-color="#fff" stop-opacity=".55"/></linearGradient><rect width="20" height="3" x="2" y="8" fill="url(#kV1e2TML7qZu5d-z5h9c3d)"/></svg>