<svg xmlns="http://www.w3.org/2000/svg"  viewBox="0 0 24 24" width="48px" height="48px" baseProfile="basic"><linearGradient id="wZOzkhQVTpjzDVou_SiaVa" x1="9.342" x2="14.658" y1="12.342" y2="17.658" gradientUnits="userSpaceOnUse"><stop offset="0" stop-color="#fff" stop-opacity=".7"/><stop offset=".519" stop-color="#fff" stop-opacity=".45"/><stop offset="1" stop-color="#fff" stop-opacity=".55"/></linearGradient><ellipse cx="12" cy="15" fill="url(#wZOzkhQVTpjzDVou_SiaVa)" rx="3.5" ry="4"/><linearGradient id="wZOzkhQVTpjzDVou_SiaVb" x1="18.293" x2="19.707" y1="14.293" y2="15.707" gradientUnits="userSpaceOnUse"><stop offset="0" stop-color="#fff" stop-opacity=".7"/><stop offset=".519" stop-color="#fff" stop-opacity=".45"/><stop offset="1" stop-color="#fff" stop-opacity=".55"/></linearGradient><circle cx="19" cy="15" r="1" fill="url(#wZOzkhQVTpjzDVou_SiaVb)"/><linearGradient id="wZOzkhQVTpjzDVou_SiaVc" x1="4.293" x2="5.707" y1="14.293" y2="15.707" gradientUnits="userSpaceOnUse"><stop offset="0" stop-color="#fff" stop-opacity=".7"/><stop offset=".519" stop-color="#fff" stop-opacity=".45"/><stop offset="1" stop-color="#fff" stop-opacity=".55"/></linearGradient><circle cx="5" cy="15" r="1" fill="url(#wZOzkhQVTpjzDVou_SiaVc)"/><linearGradient id="wZOzkhQVTpjzDVou_SiaVd" x1="5.073" x2="19.902" y1="7.098" y2="21.927" gradientUnits="userSpaceOnUse"><stop offset="0" stop-color="#fff" stop-opacity=".6"/><stop offset="1" stop-color="#fff" stop-opacity=".3"/></linearGradient><path fill="url(#wZOzkhQVTpjzDVou_SiaVd)" d="M20.867,9.205L20.867,9.205l-0.362-1.636 c-0.186-0.843-0.881-1.436-1.69-1.544h0l-1.117-1.998c-0.539-0.964-1.758-1.309-2.722-0.77L4.707,9H4c-1.105,0-2,0.895-2,2v8 c0,1.105,0.895,2,2,2h16c1.105,0,2-0.895,2-2v-8C22,10.208,21.535,9.529,20.867,9.205z M18.478,6.006 c-0.118,0.005-0.237,0.016-0.357,0.042C18.241,6.021,18.36,6.008,18.478,6.006z M20.471,9.062 c-0.008-0.002-0.016-0.006-0.024-0.008C20.455,9.056,20.463,9.06,20.471,9.062z"/><linearGradient id="wZOzkhQVTpjzDVou_SiaVe" x1="5.073" x2="19.902" y1="7.098" y2="21.927" gradientUnits="userSpaceOnUse"><stop offset="0" stop-color="#fff" stop-opacity=".6"/><stop offset=".493" stop-color="#fff" stop-opacity="0"/><stop offset=".997" stop-color="#fff" stop-opacity=".3"/></linearGradient><path fill="url(#wZOzkhQVTpjzDVou_SiaVe)" d="M15.951,3.503 c0.544,0,1.046,0.294,1.311,0.768l0.771,1.38l0.195,0.885c0.09-0.02,0.179-0.027,0.268-0.031l-0.001-0.027l0.005,0.009 l0.248,0.033c0.624,0.083,1.134,0.548,1.268,1.157l0.357,1.617l-0.08,0.237l0.036,0.012l0.024,0.006l0.042-0.156l0.035,0.158 l0.218,0.106C21.174,9.909,21.5,10.425,21.5,11v8c0,0.827-0.673,1.5-1.5,1.5H4c-0.827,0-1.5-0.673-1.5-1.5v-8 c0-0.827,0.673-1.5,1.5-1.5h0.707h0.13l0.114-0.064l10.27-5.742C15.445,3.569,15.697,3.503,15.951,3.503 M15.951,3.003 c-0.33,0-0.665,0.082-0.974,0.255L4.707,9H4c-1.105,0-2,0.895-2,2v8c0,1.105,0.895,2,2,2h16c1.105,0,2-0.895,2-2v-8 c0-0.792-0.465-1.471-1.133-1.795l-0.362-1.636c-0.186-0.843-0.881-1.436-1.69-1.544h0l-1.117-1.998 C17.332,3.372,16.652,3.003,15.951,3.003L15.951,3.003z M18.121,6.047c0.12-0.026,0.239-0.039,0.357-0.042 C18.36,6.01,18.241,6.021,18.121,6.047L18.121,6.047z M20.455,9.057c-0.003-0.001-0.005-0.002-0.008-0.002 C20.449,9.055,20.452,9.056,20.455,9.057c0.005,0.002,0.011,0.004,0.016,0.005C20.465,9.06,20.46,9.058,20.455,9.057L20.455,9.057 z"/><linearGradient id="wZOzkhQVTpjzDVou_SiaVf" x1="9.163" x2="17.321" y1="4.594" y2="12.752" gradientUnits="userSpaceOnUse"><stop offset="0" stop-color="#fff" stop-opacity=".7"/><stop offset=".519" stop-color="#fff" stop-opacity=".45"/><stop offset="1" stop-color="#fff" stop-opacity=".55"/></linearGradient><path fill="url(#wZOzkhQVTpjzDVou_SiaVf)" d="M20,9c0.312,0,0.604,0.078,0.867,0.205	l-0.362-1.636c-0.238-1.079-1.306-1.76-2.384-1.521L4.757,9h1.96H20z"/></svg>