<svg xmlns="http://www.w3.org/2000/svg" xmlns:xlink="http://www.w3.org/1999/xlink" viewBox="0,0,255.99609,255.99609" width="48px" height="48px" fill-rule="nonzero"><defs><linearGradient x1="4.503" y1="4.503" x2="19.497" y2="19.497" gradientUnits="userSpaceOnUse" id="color-1"><stop offset="0" stop-color="#ffffff" stop-opacity="0.6"></stop><stop offset="1" stop-color="#ffffff" stop-opacity="0.3"></stop></linearGradient><linearGradient x1="4.503" y1="4.503" x2="19.497" y2="19.497" gradientUnits="userSpaceOnUse" id="color-2"><stop offset="0" stop-color="#ffffff" stop-opacity="0.6"></stop><stop offset="0.493" stop-color="#ffffff" stop-opacity="0"></stop><stop offset="0.997" stop-color="#ffffff" stop-opacity="0.3"></stop></linearGradient></defs><g fill-opacity="0" fill="#ffffff" fill-rule="nonzero" stroke="none" stroke-width="1" stroke-linecap="butt" stroke-linejoin="miter" stroke-miterlimit="10" stroke-dasharray="" stroke-dashoffset="0" font-family="none" font-weight="none" font-size="none" text-anchor="none" style="mix-blend-mode: normal"><path d="M0,255.99609v-255.99609h255.99609v255.99609z" id="bgRectangle"></path></g><g fill="none" fill-rule="nonzero" stroke="none" stroke-width="1" stroke-linecap="butt" stroke-linejoin="miter" stroke-miterlimit="10" stroke-dasharray="" stroke-dashoffset="0" font-family="none" font-weight="none" font-size="none" text-anchor="none" style="mix-blend-mode: normal"><g transform="scale(10.66667,10.66667)"><path d="M22.785,16.178l-3.075,3.104c-0.391,0.395 -1.03,0.395 -1.421,0l-3.075,-3.104c-0.432,-0.436 -0.122,-1.178 0.492,-1.178h1.294v-5c0,-1.657 -1.343,-3 -3,-3h-1c-1.657,0 -3,-1.343 -3,-3c0,-0.552 0.448,-1 1,-1h3c3.866,0 7,3.134 7,7v5h1.294c0.614,0 0.924,0.742 0.491,1.178zM11,17h-1c-1.657,0 -3,-1.343 -3,-3v-5h1.294c0.615,0 0.924,-0.742 0.491,-1.178l-3.075,-3.105c-0.391,-0.395 -1.03,-0.395 -1.421,0l-3.074,3.105c-0.433,0.436 -0.123,1.178 0.491,1.178h1.294v5c0,3.866 3.134,7 7,7h3c0.552,0 1,-0.448 1,-1c0,-1.657 -1.343,-3 -3,-3z" fill="url(#color-1)"></path><path d="M14,3.5c3.584,0 6.5,2.916 6.5,6.5v5v0.5h0.5h1.294c0.111,0 0.159,0.074 0.177,0.118c0.018,0.044 0.038,0.13 -0.041,0.209l-3.075,3.104c-0.095,0.096 -0.221,0.148 -0.355,0.148c-0.134,0 -0.261,-0.053 -0.355,-0.148l-3.075,-3.104c-0.078,-0.079 -0.059,-0.165 -0.041,-0.209c0.018,-0.044 0.066,-0.118 0.177,-0.118h1.294h0.5v-0.5v-5c0,-1.93 -1.57,-3.5 -3.5,-3.5h-1c-1.378,0 -2.5,-1.121 -2.5,-2.5c0,-0.276 0.224,-0.5 0.5,-0.5h3M5,4.921c0.134,0 0.261,0.053 0.355,0.148l3.075,3.104c0.078,0.079 0.059,0.165 0.041,0.209c-0.019,0.044 -0.066,0.118 -0.177,0.118h-1.294h-0.5v0.5v5c0,1.93 1.57,3.5 3.5,3.5h1c1.378,0 2.5,1.122 2.5,2.5c0,0.276 -0.224,0.5 -0.5,0.5h-3c-3.584,0 -6.5,-2.916 -6.5,-6.5v-5v-0.5h-0.5h-1.294c-0.111,0 -0.159,-0.074 -0.177,-0.118c-0.018,-0.044 -0.037,-0.13 0.041,-0.209l3.075,-3.104c0.094,-0.095 0.221,-0.148 0.355,-0.148M14,3h-3c-0.552,0 -1,0.448 -1,1c0,1.657 1.343,3 3,3h1c1.657,0 3,1.343 3,3v5h-1.294c-0.615,0 -0.924,0.742 -0.491,1.178l3.075,3.104c0.196,0.198 0.453,0.296 0.71,0.296c0.257,0 0.515,-0.099 0.71,-0.296l3.075,-3.104c0.433,-0.436 0.123,-1.178 -0.491,-1.178h-1.294v-5c0,-3.866 -3.134,-7 -7,-7zM5,4.421c-0.257,0 -0.515,0.099 -0.71,0.296l-3.075,3.105c-0.433,0.436 -0.123,1.178 0.491,1.178h1.294v5c0,3.866 3.134,7 7,7h3c0.552,0 1,-0.448 1,-1c0,-1.657 -1.343,-3 -3,-3h-1c-1.657,0 -3,-1.343 -3,-3v-5h1.294c0.615,0 0.924,-0.742 0.491,-1.178l-3.075,-3.105c-0.195,-0.197 -0.453,-0.296 -0.71,-0.296z" fill="url(#color-2)"></path></g></g></svg>