<svg xmlns="http://www.w3.org/2000/svg" xmlns:xlink="http://www.w3.org/1999/xlink" viewBox="0,0,255.99609,255.99609" width="48px" height="48px" fill-rule="nonzero"><defs><linearGradient x1="0.439" y1="5.146" x2="11.561" y2="16.268" gradientUnits="userSpaceOnUse" id="color-1"><stop offset="0" stop-color="#76a609"></stop><stop offset="1" stop-color="#ffffff" stop-opacity="0.3"></stop></linearGradient><linearGradient x1="0.439" y1="5.146" x2="11.561" y2="16.268" gradientUnits="userSpaceOnUse" id="color-2"><stop offset="0" stop-color="#76a609"></stop><stop offset="0.493" stop-color="#ffffff" stop-opacity="0"></stop><stop offset="0.997" stop-color="#ffffff" stop-opacity="0.3"></stop></linearGradient><linearGradient x1="10.557" y1="5.028" x2="23.443" y2="17.914" gradientUnits="userSpaceOnUse" id="color-3"><stop offset="0" stop-color="#76a609"></stop><stop offset="1" stop-color="#ffffff" stop-opacity="0.3"></stop></linearGradient><linearGradient x1="10.557" y1="5.028" x2="23.443" y2="17.914" gradientUnits="userSpaceOnUse" id="color-4"><stop offset="0" stop-color="#76a609"></stop><stop offset="0.493" stop-color="#ffffff" stop-opacity="0"></stop><stop offset="0.997" stop-color="#ffffff" stop-opacity="0.3"></stop></linearGradient><linearGradient x1="14.386" y1="16.514" x2="19.614" y2="21.742" gradientUnits="userSpaceOnUse" id="color-5"><stop offset="0" stop-color="#ffffff" stop-opacity="0.7"></stop><stop offset="0.519" stop-color="#ffffff" stop-opacity="0.45"></stop><stop offset="1" stop-color="#ffffff" stop-opacity="0.55"></stop></linearGradient><linearGradient x1="3.793" y1="15.207" x2="8.207" y2="19.621" gradientUnits="userSpaceOnUse" id="color-6"><stop offset="0" stop-color="#ffffff" stop-opacity="0.7"></stop><stop offset="0.519" stop-color="#ffffff" stop-opacity="0.45"></stop><stop offset="1" stop-color="#ffffff" stop-opacity="0.55"></stop></linearGradient></defs><g fill="none" fill-rule="nonzero" stroke="none" stroke-width="1" stroke-linecap="butt" stroke-linejoin="miter" stroke-miterlimit="10" stroke-dasharray="" stroke-dashoffset="0" font-family="none" font-weight="none" font-size="none" text-anchor="none" style="mix-blend-mode: normal"><g transform="scale(10.66667,10.66667)"><path d="M9,3c-0.552,0 -1,0.448 -1,1v4c0,0.276 -0.224,0.5 -0.5,0.5c-0.276,0 -0.5,-0.224 -0.5,-0.5v-4c0,-0.552 -0.448,-1 -1,-1c-0.552,0 -1,0.448 -1,1v4c0,0.276 -0.224,0.5 -0.5,0.5c-0.276,0 -0.5,-0.224 -0.5,-0.5v-4c0,-0.552 -0.448,-1 -1,-1c-0.552,0 -1,0.448 -1,1v5c0,1.304 0.837,2.403 2,2.816v7.184c0,1.105 0.895,2 2,2c1.105,0 2,-0.895 2,-2v-7.184c1.163,-0.413 2,-1.512 2,-2.816v-5c0,-0.552 -0.448,-1 -1,-1z" fill="url(#color-1)"></path><path d="M9,3.5c0.276,0 0.5,0.224 0.5,0.5v5c0,1.048 -0.67,1.991 -1.667,2.345l-0.333,0.118v0.353v7.184c0,0.827 -0.673,1.5 -1.5,1.5c-0.827,0 -1.5,-0.673 -1.5,-1.5v-7.184v-0.353l-0.333,-0.118c-0.997,-0.354 -1.667,-1.297 -1.667,-2.345v-5c0,-0.276 0.224,-0.5 0.5,-0.5c0.276,0 0.5,0.224 0.5,0.5v4c0,0.551 0.449,1 1,1c0.551,0 1,-0.449 1,-1v-4c0,-0.276 0.224,-0.5 0.5,-0.5c0.276,0 0.5,0.224 0.5,0.5v4c0,0.551 0.449,1 1,1c0.551,0 1,-0.449 1,-1v-4c0,-0.276 0.224,-0.5 0.5,-0.5M9,3c-0.552,0 -1,0.448 -1,1v4c0,0.276 -0.224,0.5 -0.5,0.5c-0.276,0 -0.5,-0.224 -0.5,-0.5v-4c0,-0.552 -0.448,-1 -1,-1c-0.552,0 -1,0.448 -1,1v4c0,0.276 -0.224,0.5 -0.5,0.5c-0.276,0 -0.5,-0.224 -0.5,-0.5v-4c0,-0.552 -0.448,-1 -1,-1c-0.552,0 -1,0.448 -1,1v5c0,1.304 0.837,2.403 2,2.816v7.184c0,1.105 0.895,2 2,2c1.105,0 2,-0.895 2,-2v-7.184c1.163,-0.413 2,-1.512 2,-2.816v-5c0,-0.552 -0.448,-1 -1,-1z" fill="url(#color-2)"></path><path d="M22,10c0,-0.31 0,-6 0,-6c0,-0.552 -0.448,-1 -1,-1h-8c-0.552,0 -1,0.448 -1,1c0,0 0,5.686 0,6c0,2.419 1.718,4.436 4,4.899v2.632c0,0.464 -0.318,0.866 -0.769,0.973l-1.347,0.319c-0.514,0.103 -0.884,0.554 -0.884,1.078c0,0.607 0.492,1.099 1.099,1.099h5.802c0.607,0 1.099,-0.492 1.099,-1.099c0,-0.524 -0.37,-0.975 -0.883,-1.078l-1.347,-0.319c-0.452,-0.107 -0.77,-0.509 -0.77,-0.973v-2.632c2.282,-0.463 4,-2.48 4,-4.899z" fill="url(#color-3)"></path><path d="M21,3.5c0.276,0 0.5,0.224 0.5,0.5v6c0,2.131 -1.514,3.986 -3.599,4.409l-0.401,0.082v0.409v2.632c0,0.698 0.475,1.299 1.154,1.46l1.364,0.323c0.279,0.056 0.482,0.303 0.482,0.587c0,0.33 -0.269,0.599 -0.599,0.599h-5.802c-0.33,0 -0.599,-0.269 -0.599,-0.599c0,-0.285 0.203,-0.532 0.499,-0.591l1.347,-0.319c0.68,-0.161 1.154,-0.761 1.154,-1.46v-2.632v-0.409l-0.401,-0.081c-2.085,-0.424 -3.599,-2.279 -3.599,-4.41v-6c0,-0.276 0.224,-0.5 0.5,-0.5h8M21,3h-8c-0.552,0 -1,0.448 -1,1c0,0 0,5.686 0,6c0,2.419 1.718,4.436 4,4.899v2.632c0,0.463 -0.318,0.866 -0.769,0.973l-1.347,0.319c-0.514,0.103 -0.884,0.554 -0.884,1.078c0,0.607 0.492,1.099 1.099,1.099h5.802c0.607,0 1.099,-0.492 1.099,-1.099c0,-0.524 -0.37,-0.975 -0.883,-1.078l-1.347,-0.319c-0.452,-0.107 -0.77,-0.509 -0.77,-0.973v-2.632c2.282,-0.463 4,-2.48 4,-4.899c0,-0.31 0,-6 0,-6c0,-0.552 -0.448,-1 -1,-1z" fill="url(#color-4)"></path><path d="M20.117,18.823l-1.347,-0.319c-0.452,-0.107 -0.77,-0.509 -0.77,-0.973v-2.632c-0.323,0.066 -0.657,0.101 -1,0.101c-0.343,0 -0.677,-0.035 -1,-0.101v2.632c0,0.464 -0.318,0.866 -0.769,0.973l-1.347,0.319c-0.514,0.103 -0.884,0.554 -0.884,1.078c0,0.607 0.492,1.099 1.099,1.099h5.802c0.607,0 1.099,-0.492 1.099,-1.099c0,-0.524 -0.37,-0.975 -0.883,-1.078z" fill="url(#color-5)"></path><path d="M6,21c1.105,0 2,-0.895 2,-2v-4h-4v4c0,1.105 0.895,2 2,2z" fill="url(#color-6)"></path></g></g></svg>