<svg xmlns="http://www.w3.org/2000/svg"  viewBox="0 0 24 24" width="48px" height="48px" baseProfile="basic"><linearGradient id="owBl37v3DvN1bE9Sd83D_a" x1="8.793" x2="15.207" y1="14.379" y2="20.793" gradientUnits="userSpaceOnUse"><stop offset="0" stop-color="#fff" stop-opacity=".7"/><stop offset=".519" stop-color="#fff" stop-opacity=".45"/><stop offset="1" stop-color="#fff" stop-opacity=".55"/></linearGradient><path fill="url(#owBl37v3DvN1bE9Sd83D_a)" d="M15,21H9v-6c0-1.105,0.895-2,2-2h2c1.105,0,2,0.895,2,2V21z"/><linearGradient id="owBl37v3DvN1bE9Sd83D_b" x1="4.216" x2="19.784" y1="4.892" y2="20.459" gradientUnits="userSpaceOnUse"><stop offset="0" stop-color="#fff" stop-opacity=".6"/><stop offset="1" stop-color="#fff" stop-opacity=".3"/></linearGradient><path fill="url(#owBl37v3DvN1bE9Sd83D_b)" d="M21.229,6.419l-6.839-3.8 c-1.496-0.831-3.282-0.832-4.778,0l-6.839,3.8c-0.724,0.402-0.985,1.315-0.583,2.04C2.374,8.791,2.668,9.02,3,9.138V18 c0,1.657,1.343,3,3,3h12c1.657,0,3-1.343,3-3V9.133c0.332-0.118,0.627-0.342,0.811-0.674C22.213,7.734,21.953,6.821,21.229,6.419z"/><linearGradient id="owBl37v3DvN1bE9Sd83D_c" x1="2" x2="22" y1="11.498" y2="11.498" gradientUnits="userSpaceOnUse"><stop offset="0" stop-color="#fff" stop-opacity=".6"/><stop offset=".493" stop-color="#fff" stop-opacity="0"/><stop offset=".997" stop-color="#fff" stop-opacity=".3"/></linearGradient><path fill="url(#owBl37v3DvN1bE9Sd83D_c)" d="M11.999,2.496 c0.744,0,1.487,0.194,2.147,0.56l6.839,3.8c0.482,0.268,0.656,0.878,0.388,1.36c-0.145,0.26-0.375,0.386-0.542,0.446L20.5,8.78 v0.353V18c0,1.378-1.122,2.5-2.5,2.5H6c-1.378,0-2.5-1.122-2.5-2.5V9.138V8.785L3.167,8.667C3.002,8.608,2.774,8.482,2.626,8.216 c-0.13-0.233-0.161-0.503-0.087-0.76c0.073-0.257,0.242-0.47,0.476-0.599l6.839-3.8C10.513,2.69,11.255,2.496,11.999,2.496 M11.999,1.996c-0.82,0-1.641,0.208-2.388,0.623l-6.839,3.8c-0.724,0.402-0.985,1.315-0.583,2.04C2.374,8.791,2.668,9.02,3,9.138 V18c0,1.657,1.343,3,3,3h12c1.657,0,3-1.343,3-3V9.133c0.332-0.118,0.627-0.342,0.811-0.674c0.402-0.724,0.142-1.637-0.583-2.04 l-6.839-3.8C13.641,2.204,12.82,1.996,11.999,1.996L11.999,1.996z"/><linearGradient id="owBl37v3DvN1bE9Sd83D_d" x1="6.689" x2="17.311" y1="2.419" y2="13.041" gradientUnits="userSpaceOnUse"><stop offset="0" stop-color="#fff" stop-opacity=".7"/><stop offset=".519" stop-color="#fff" stop-opacity=".45"/><stop offset="1" stop-color="#fff" stop-opacity=".55"/></linearGradient><path fill="url(#owBl37v3DvN1bE9Sd83D_d)" d="M20.499,9.23	c-0.247,0-0.496-0.061-0.727-0.189l-6.839-3.8c-0.584-0.324-1.28-0.324-1.864,0l-6.839,3.8c-0.725,0.402-1.637,0.142-2.04-0.583	c-0.402-0.724-0.142-1.637,0.583-2.04l6.839-3.8c1.496-0.832,3.282-0.831,4.778,0l6.839,3.8c0.724,0.402,0.985,1.315,0.583,2.04	C21.537,8.952,21.026,9.23,20.499,9.23z"/></svg>