<svg xmlns="http://www.w3.org/2000/svg" xmlns:xlink="http://www.w3.org/1999/xlink" viewBox="0,0,255.99609,255.99609" width="48px" height="48px" fill-rule="nonzero"><defs><linearGradient x1="3.086" y1="3.086" x2="20.914" y2="20.914" gradientUnits="userSpaceOnUse" id="color-1"><stop offset="0" stop-color="#494b43"></stop><stop offset="1" stop-color="#494b43"></stop></linearGradient><linearGradient x1="3.086" y1="3.086" x2="20.914" y2="20.914" gradientUnits="userSpaceOnUse" id="color-2"><stop offset="0" stop-color="#494b43"></stop><stop offset="0.493" stop-color="#494b43"></stop><stop offset="0.997" stop-color="#494b43"></stop></linearGradient></defs><g fill-opacity="0" fill="#ffffff" fill-rule="nonzero" stroke="none" stroke-width="1" stroke-linecap="butt" stroke-linejoin="miter" stroke-miterlimit="10" stroke-dasharray="" stroke-dashoffset="0" font-family="none" font-weight="none" font-size="none" text-anchor="none" style="mix-blend-mode: normal"><path d="M0,255.99609v-255.99609h255.99609v255.99609z" id="bgRectangle"></path></g><g fill="none" fill-rule="nonzero" stroke="none" stroke-width="1" stroke-linecap="butt" stroke-linejoin="miter" stroke-miterlimit="10" stroke-dasharray="" stroke-dashoffset="0" font-family="none" font-weight="none" font-size="none" text-anchor="none" style="mix-blend-mode: normal"><g transform="scale(10.66667,10.66667)"><path d="M22,12c0,1.105 -0.895,2 -2,2h-16c-1.105,0 -2,-0.895 -2,-2c0,-1.105 0.895,-2 2,-2h16c1.105,0 2,0.895 2,2zM4,7h16c1.105,0 2,-0.895 2,-2c0,-1.105 -0.895,-2 -2,-2h-16c-1.105,0 -2,0.895 -2,2c0,1.105 0.895,2 2,2zM20,17h-16c-1.105,0 -2,0.895 -2,2c0,1.105 0.895,2 2,2h16c1.105,0 2,-0.895 2,-2c0,-1.105 -0.895,-2 -2,-2z" fill="url(#color-1)"></path><path d="M20,3.5c0.827,0 1.5,0.673 1.5,1.5c0,0.827 -0.673,1.5 -1.5,1.5h-16c-0.827,0 -1.5,-0.673 -1.5,-1.5c0,-0.827 0.673,-1.5 1.5,-1.5h16M20,10.5c0.827,0 1.5,0.673 1.5,1.5c0,0.827 -0.673,1.5 -1.5,1.5h-16c-0.827,0 -1.5,-0.673 -1.5,-1.5c0,-0.827 0.673,-1.5 1.5,-1.5h16M20,17.5c0.827,0 1.5,0.673 1.5,1.5c0,0.827 -0.673,1.5 -1.5,1.5h-16c-0.827,0 -1.5,-0.673 -1.5,-1.5c0,-0.827 0.673,-1.5 1.5,-1.5h16M20,3h-16c-1.105,0 -2,0.895 -2,2c0,1.105 0.895,2 2,2h16c1.105,0 2,-0.895 2,-2c0,-1.105 -0.895,-2 -2,-2zM20,10h-16c-1.105,0 -2,0.895 -2,2c0,1.105 0.895,2 2,2h16c1.105,0 2,-0.895 2,-2c0,-1.105 -0.895,-2 -2,-2zM20,17h-16c-1.105,0 -2,0.895 -2,2c0,1.105 0.895,2 2,2h16c1.105,0 2,-0.895 2,-2c0,-1.105 -0.895,-2 -2,-2z" fill="url(#color-2)"></path></g></g></svg>