<svg xmlns="http://www.w3.org/2000/svg" xmlns:xlink="http://www.w3.org/1999/xlink" viewBox="0,0,255.99609,255.99609" width="48px" height="48px" fill-rule="nonzero"><defs><linearGradient x1="15.586" y1="3.586" x2="18.414" y2="6.414" gradientUnits="userSpaceOnUse" id="color-1"><stop offset="0" stop-color="#ffffff" stop-opacity="0.6"></stop><stop offset="1" stop-color="#ffffff" stop-opacity="0.3"></stop></linearGradient><linearGradient x1="15" y1="5" x2="19" y2="5" gradientUnits="userSpaceOnUse" id="color-2"><stop offset="0" stop-color="#ffffff" stop-opacity="0.6"></stop><stop offset="0.493" stop-color="#ffffff" stop-opacity="0"></stop><stop offset="0.997" stop-color="#ffffff" stop-opacity="0.3"></stop></linearGradient><linearGradient x1="14.69" y1="7.189" x2="19.311" y2="11.81" gradientUnits="userSpaceOnUse" id="color-3"><stop offset="0" stop-color="#ffffff" stop-opacity="0.6"></stop><stop offset="1" stop-color="#ffffff" stop-opacity="0.3"></stop></linearGradient><linearGradient x1="13" y1="9.5" x2="21" y2="9.5" gradientUnits="userSpaceOnUse" id="color-4"><stop offset="0" stop-color="#ffffff" stop-opacity="0.6"></stop><stop offset="0.493" stop-color="#ffffff" stop-opacity="0"></stop><stop offset="0.997" stop-color="#ffffff" stop-opacity="0.3"></stop></linearGradient><linearGradient x1="2.366" y1="7.512" x2="17.342" y2="22.487" gradientUnits="userSpaceOnUse" id="color-5"><stop offset="0" stop-color="#ffffff" stop-opacity="0.6"></stop><stop offset="1" stop-color="#ffffff" stop-opacity="0.3"></stop></linearGradient><linearGradient x1="0" y1="15" x2="24" y2="15" gradientUnits="userSpaceOnUse" id="color-6"><stop offset="0" stop-color="#ffffff" stop-opacity="0.6"></stop><stop offset="0.493" stop-color="#ffffff" stop-opacity="0"></stop><stop offset="0.997" stop-color="#ffffff" stop-opacity="0.3"></stop></linearGradient><linearGradient x1="-1.811" y1="11.689" x2="4.811" y2="18.311" gradientUnits="userSpaceOnUse" id="color-7"><stop offset="0" stop-color="#ffffff" stop-opacity="0.6"></stop><stop offset="1" stop-color="#ffffff" stop-opacity="0.3"></stop></linearGradient></defs><g fill-opacity="0" fill="#ffffff" fill-rule="nonzero" stroke="none" stroke-width="1" stroke-linecap="butt" stroke-linejoin="miter" stroke-miterlimit="10" stroke-dasharray="" stroke-dashoffset="0" font-family="none" font-weight="none" font-size="none" text-anchor="none" style="mix-blend-mode: normal"><path d="M0,255.99609v-255.99609h255.99609v255.99609z" id="bgRectangle"></path></g><g fill="none" fill-rule="nonzero" stroke="none" stroke-width="1" stroke-linecap="butt" stroke-linejoin="miter" stroke-miterlimit="10" stroke-dasharray="" stroke-dashoffset="0" font-family="none" font-weight="none" font-size="none" text-anchor="none" style="mix-blend-mode: normal"><g transform="scale(10.66667,10.66667)"><circle cx="17" cy="5" r="2" fill="url(#color-1)"></circle><path d="M17,3.5c0.827,0 1.5,0.673 1.5,1.5c0,0.827 -0.673,1.5 -1.5,1.5c-0.827,0 -1.5,-0.673 -1.5,-1.5c0,-0.827 0.673,-1.5 1.5,-1.5M17,3c-1.105,0 -2,0.895 -2,2c0,1.105 0.895,2 2,2c1.105,0 2,-0.895 2,-2c0,-1.105 -0.895,-2 -2,-2z" fill="url(#color-2)"></path><g><path d="M14.5,11h5c0.828,0 1.5,-0.672 1.5,-1.5c0,-0.828 -0.672,-1.5 -1.5,-1.5h-5c-0.828,0 -1.5,0.672 -1.5,1.5c0,0.828 0.672,1.5 1.5,1.5z" fill="url(#color-3)"></path><path d="M19.5,8.5c0.551,0 1,0.449 1,1c0,0.551 -0.449,1 -1,1h-5c-0.551,0 -1,-0.449 -1,-1c0,-0.551 0.449,-1 1,-1h5M19.5,8h-5c-0.828,0 -1.5,0.672 -1.5,1.5c0,0.828 0.672,1.5 1.5,1.5h5c0.828,0 1.5,-0.672 1.5,-1.5c0,-0.828 -0.672,-1.5 -1.5,-1.5z" fill="url(#color-4)"></path></g><g><path d="M23.546,13.73c-0.627,-0.775 -1.767,-0.908 -2.632,-0.413l-4.468,2.553c0.481,-0.945 0.147,-2.109 -0.783,-2.64l-3.287,-1.878c-1.931,-1.104 -4.175,-1.532 -6.377,-1.218l-2.999,0.428v-0.062c0,-0.829 -0.671,-1.5 -1.5,-1.5c-0.829,0 -1.5,0.671 -1.5,1.5v9c0,0.829 0.671,1.5 1.5,1.5c0.736,0 1.345,-0.53 1.473,-1.229l1.572,-0.576c0.983,-0.359 2.053,-0.402 3.061,-0.12l6.38,1.78c0.772,0.215 1.599,0.113 2.295,-0.285l6.711,-3.835c1.055,-0.601 1.353,-2.018 0.554,-3.005z" fill="url(#color-5)"></path><path d="M1.5,9.5c0.551,0 1,0.449 1,1v0.062v0.577l0.571,-0.082l2.999,-0.428c0.443,-0.063 0.895,-0.095 1.343,-0.095c1.652,0 3.282,0.433 4.716,1.252l3.287,1.878c0.692,0.395 0.949,1.264 0.585,1.979l-0.759,1.491l1.453,-0.83l4.468,-2.553c0.258,-0.148 0.552,-0.226 0.849,-0.226c0.461,0 0.879,0.189 1.146,0.519c0.287,0.355 0.4,0.792 0.317,1.232c-0.081,0.433 -0.348,0.807 -0.731,1.026l-6.711,3.835c-0.377,0.215 -0.806,0.329 -1.24,0.329c-0.227,0 -0.453,-0.031 -0.672,-0.092l-6.38,-1.78c-0.481,-0.135 -0.978,-0.203 -1.478,-0.203c-0.646,0 -1.282,0.113 -1.89,0.335l-1.572,0.576l-0.269,0.098l-0.051,0.281c-0.087,0.475 -0.5,0.819 -0.981,0.819c-0.551,0 -1,-0.449 -1,-1v-9c0,-0.551 0.449,-1 1,-1M1.5,9c-0.829,0 -1.5,0.671 -1.5,1.5v9c0,0.829 0.671,1.5 1.5,1.5c0.736,0 1.345,-0.53 1.473,-1.229l1.572,-0.576c0.554,-0.202 1.135,-0.304 1.718,-0.304c0.451,0 0.903,0.061 1.343,0.184l6.38,1.78c0.265,0.074 0.536,0.11 0.806,0.11c0.518,0 1.031,-0.134 1.489,-0.395l6.711,-3.835c1.055,-0.602 1.353,-2.019 0.554,-3.006c-0.381,-0.471 -0.951,-0.705 -1.534,-0.705c-0.376,0 -0.758,0.098 -1.098,0.292l-4.468,2.553c0.481,-0.945 0.147,-2.109 -0.783,-2.64l-3.287,-1.878c-1.519,-0.868 -3.231,-1.318 -4.964,-1.318c-0.471,0 -0.943,0.033 -1.413,0.1l-2.999,0.429v-0.062c0,-0.829 -0.671,-1.5 -1.5,-1.5z" fill="url(#color-6)"></path></g><g fill="url(#color-7)"><path d="M1.5,21c-0.829,0 -1.5,-0.671 -1.5,-1.5v-9c0,-0.829 0.671,-1.5 1.5,-1.5c0.829,0 1.5,0.671 1.5,1.5v9c0,0.829 -0.671,1.5 -1.5,1.5z"></path></g></g></g></svg>