<svg xmlns="http://www.w3.org/2000/svg" xmlns:xlink="http://www.w3.org/1999/xlink" viewBox="0,0,255.99609,255.99609" width="48px" height="48px" fill-rule="nonzero"><defs><linearGradient x1="4.025" y1="3.025" x2="8.975" y2="7.975" gradientUnits="userSpaceOnUse" id="color-1"><stop offset="0" stop-color="#ffffff" stop-opacity="0.6"></stop><stop offset="1" stop-color="#ffffff" stop-opacity="0.3"></stop></linearGradient><linearGradient x1="4.025" y1="3.025" x2="8.975" y2="7.975" gradientUnits="userSpaceOnUse" id="color-2"><stop offset="0" stop-color="#ffffff" stop-opacity="0.6"></stop><stop offset="0.493" stop-color="#ffffff" stop-opacity="0"></stop><stop offset="0.997" stop-color="#ffffff" stop-opacity="0.3"></stop></linearGradient><linearGradient x1="15.197" y1="7.006" x2="20.803" y2="12.611" gradientUnits="userSpaceOnUse" id="color-3"><stop offset="0" stop-color="#ffffff" stop-opacity="0.6"></stop><stop offset="1" stop-color="#ffffff" stop-opacity="0.3"></stop></linearGradient><linearGradient x1="15.197" y1="7.006" x2="20.803" y2="12.611" gradientUnits="userSpaceOnUse" id="color-4"><stop offset="0" stop-color="#ffffff" stop-opacity="0.6"></stop><stop offset="0.493" stop-color="#ffffff" stop-opacity="0"></stop><stop offset="0.997" stop-color="#ffffff" stop-opacity="0.3"></stop></linearGradient><linearGradient x1="5.476" y1="10.281" x2="14.359" y2="19.164" gradientUnits="userSpaceOnUse" id="color-5"><stop offset="0" stop-color="#ffffff" stop-opacity="0.6"></stop><stop offset="1" stop-color="#ffffff" stop-opacity="0.3"></stop></linearGradient><linearGradient x1="3" y1="16" x2="20" y2="16" gradientUnits="userSpaceOnUse" id="color-6"><stop offset="0" stop-color="#ffffff" stop-opacity="0.6"></stop><stop offset="0.493" stop-color="#ffffff" stop-opacity="0"></stop><stop offset="0.997" stop-color="#ffffff" stop-opacity="0.3"></stop></linearGradient></defs><g fill-opacity="0" fill="#ffffff" fill-rule="nonzero" stroke="none" stroke-width="1" stroke-linecap="butt" stroke-linejoin="miter" stroke-miterlimit="10" stroke-dasharray="" stroke-dashoffset="0" font-family="none" font-weight="none" font-size="none" text-anchor="none" style="mix-blend-mode: normal"><path d="M0,255.99609v-255.99609h255.99609v255.99609z" id="bgRectangle"></path></g><g fill="none" fill-rule="nonzero" stroke="none" stroke-width="1" stroke-linecap="butt" stroke-linejoin="miter" stroke-miterlimit="10" stroke-dasharray="" stroke-dashoffset="0" font-family="none" font-weight="none" font-size="none" text-anchor="none" style="mix-blend-mode: normal"><g transform="scale(10.66667,10.66667)"><circle cx="6.5" cy="5.5" r="3.5" fill="url(#color-1)"></circle><path d="M6.5,2.5c1.654,0 3,1.346 3,3c0,1.654 -1.346,3 -3,3c-1.654,0 -3,-1.346 -3,-3c0,-1.654 1.346,-3 3,-3M6.5,2c-1.933,0 -3.5,1.567 -3.5,3.5c0,1.933 1.567,3.5 3.5,3.5c1.933,0 3.5,-1.567 3.5,-3.5c0,-1.933 -1.567,-3.5 -3.5,-3.5z" fill="url(#color-2)"></path><g><path d="M22,9c0,0 -0.517,-2.388 -3.02,-2.899c0.003,-0.035 0.02,-0.065 0.02,-0.101c0,-0.552 -0.447,-1 -0.999,-1h-0.001c-0.552,0 -1,0.447 -1,0.999c0,0.036 0.017,0.067 0.021,0.102c-2.504,0.511 -3.021,2.899 -3.021,2.899c-0.552,0 -1,0.448 -1,1c0,0.552 0.448,1 1,1h8c0.552,0 1,-0.448 1,-1c0,-0.552 -0.448,-1 -1,-1z" fill="url(#color-3)"></path><path d="M18.001,5.5c0.262,0 0.477,0.203 0.498,0.46l-0.011,0.045l-0.005,0.043l-0.049,0.452l0.445,0.091c2.141,0.437 2.613,2.432 2.632,2.515l0.086,0.394h0.403c0.276,0 0.5,0.224 0.5,0.5c0,0.276 -0.224,0.5 -0.5,0.5h-8c-0.276,0 -0.5,-0.224 -0.5,-0.5c0,-0.276 0.224,-0.5 0.5,-0.5l0.4,-0.002l0.088,-0.39c0.019,-0.085 0.492,-2.08 2.632,-2.517l0.446,-0.091l-0.048,-0.452l-0.016,-0.089c0.02,-0.257 0.236,-0.459 0.498,-0.459h0.001M18,5c-0.552,0 -1,0.447 -1,0.999c0,0.036 0.017,0.067 0.021,0.102c-2.504,0.511 -3.021,2.899 -3.021,2.899c-0.552,0 -1,0.448 -1,1c0,0.552 0.448,1 1,1h8c0.552,0 1,-0.448 1,-1c0,-0.552 -0.448,-1 -1,-1c0,0 -0.517,-2.388 -3.02,-2.899c0.003,-0.035 0.02,-0.065 0.02,-0.101c0,-0.552 -0.447,-1 -0.999,-1h-0.001v0z" fill="url(#color-4)"></path></g><g><path d="M19,11c-0.338,0 -1.601,0 -2,0c-0.331,0.016 -0.764,0.19 -0.984,0.485c-0.219,0.295 -2.682,4.061 -2.682,4.061l-3.397,-3.243c-0.731,-0.796 -1.771,-1.303 -2.937,-1.303h-1c-1.657,0 -3,1.343 -3,3v7h8v-2.835c0,0 1.528,0.621 1.678,0.686c0.15,0.065 0.532,0.149 0.822,0.149c0.964,0 1.791,-0.552 2.208,-1.351l2.18,-4.307c0.589,-0.132 2.112,-0.343 2.112,-1.342c0,-0.537 -0.436,-0.942 -1,-1z" fill="url(#color-5)"></path><path d="M18.971,11.5c0.259,0.034 0.529,0.202 0.529,0.5c0,0.498 -1.03,0.711 -1.525,0.813l-0.197,0.042l-0.23,0.052l-0.107,0.21l-2.177,4.301c-0.348,0.667 -1.024,1.082 -1.764,1.082c-0.232,0 -0.547,-0.075 -0.623,-0.108c-0.151,-0.065 -1.689,-0.69 -1.689,-0.69l-0.688,-0.28v0.743v2.335h-7v-6.5c0,-1.378 1.122,-2.5 2.5,-2.5h1c0.98,0 1.893,0.405 2.593,1.166c0.042,0.04 3.396,3.242 3.396,3.242l0.435,0.415l0.329,-0.503c0.987,-1.509 2.511,-3.828 2.665,-4.036c0.108,-0.146 0.38,-0.273 0.582,-0.283h1.971M19,11c-0.338,0 -1.601,0 -2,0c-0.331,0.016 -0.764,0.19 -0.984,0.485c-0.219,0.295 -2.682,4.061 -2.682,4.061l-3.397,-3.243c-0.731,-0.796 -1.771,-1.303 -2.937,-1.303h-1c-1.657,0 -3,1.343 -3,3v7h8v-2.835c0,0 1.528,0.621 1.678,0.686c0.15,0.065 0.532,0.149 0.822,0.149c0.964,0 1.791,-0.552 2.208,-1.351l2.18,-4.307c0.589,-0.132 2.112,-0.343 2.112,-1.342c0,-0.537 -0.436,-0.942 -1,-1z" fill="url(#color-6)"></path></g></g></g></svg>