<svg xmlns="http://www.w3.org/2000/svg" xmlns:xlink="http://www.w3.org/1999/xlink" viewBox="0,0,255.99609,255.99609" width="48px" height="48px" fill-rule="nonzero"><defs><linearGradient x1="2.855" y1="4.598" x2="19.25" y2="20.994" gradientUnits="userSpaceOnUse" id="color-1"><stop offset="0" stop-color="#76a609"></stop><stop offset="1" stop-color="#ffffff" stop-opacity="0.3"></stop></linearGradient><linearGradient x1="2.855" y1="4.598" x2="19.25" y2="20.994" gradientUnits="userSpaceOnUse" id="color-2"><stop offset="0" stop-color="#76a609"></stop><stop offset="0.493" stop-color="#ffffff" stop-opacity="0"></stop><stop offset="0.997" stop-color="#ffffff" stop-opacity="0.3"></stop></linearGradient><linearGradient x1="3.821" y1="7.884" x2="15.969" y2="20.031" gradientUnits="userSpaceOnUse" id="color-3"><stop offset="0" stop-color="#ffffff" stop-opacity="0.7"></stop><stop offset="0.519" stop-color="#ffffff" stop-opacity="0.45"></stop><stop offset="1" stop-color="#ffffff" stop-opacity="0.55"></stop></linearGradient><linearGradient x1="7.166" y1="0.287" x2="14.439" y2="7.561" gradientUnits="userSpaceOnUse" id="color-4"><stop offset="0" stop-color="#ffffff" stop-opacity="0.7"></stop><stop offset="0.519" stop-color="#ffffff" stop-opacity="0.45"></stop><stop offset="1" stop-color="#ffffff" stop-opacity="0.55"></stop></linearGradient></defs><g fill="none" fill-rule="nonzero" stroke="none" stroke-width="1" stroke-linecap="butt" stroke-linejoin="miter" stroke-miterlimit="10" stroke-dasharray="" stroke-dashoffset="0" font-family="none" font-weight="none" font-size="none" text-anchor="none" style="mix-blend-mode: normal"><g transform="scale(10.66667,10.66667)"><path d="M18.24,6.24l-1.24,-1.24l-1.41,-2.11c-0.37,-0.56 -0.99,-0.89 -1.66,-0.89h-8.06c-0.8,0 -1.28,0.89 -0.83,1.56l0.96,1.44l-0.99,1.49c-0.05,0.08 -0.1,0.16 -0.14,0.24c-0.04,0.07 -0.08,0.14 -0.12,0.22c0.001,0 0.003,0 0.004,0.001v0c0.079,0.02 0.079,0.02 0,0c-0.488,0.87 -0.754,1.854 -0.754,2.869v9.18c0,1.66 1.34,3 3,3h7h3c1.66,0 3,-1.34 3,-3v-8.52c0,-1.59 -0.63,-3.11 -1.76,-4.24z" fill="url(#color-1)"></path><path d="M13.93,2.5c0.503,0 0.967,0.249 1.244,0.668l1.41,2.11l0.027,0.041l0.035,0.035l1.24,1.24c1.041,1.04 1.614,2.42 1.614,3.886v8.52c0,1.379 -1.122,2.5 -2.5,2.5h-3h-7c-1.378,0 -2.5,-1.121 -2.5,-2.5v-9.18c0,-0.912 0.239,-1.819 0.69,-2.625l-0.381,-0.213v-0.002l0.388,0.194c0.035,-0.07 0.071,-0.132 0.12,-0.22c0.033,-0.066 0.075,-0.131 0.109,-0.187l0.99,-1.49l0.185,-0.277l-0.185,-0.277l-0.961,-1.442c-0.153,-0.227 -0.07,-0.436 -0.028,-0.516c0.088,-0.166 0.254,-0.265 0.443,-0.265h8.06M13.93,2h-8.06c-0.8,0 -1.28,0.89 -0.83,1.56l0.96,1.44l-0.99,1.49c-0.05,0.08 -0.1,0.16 -0.14,0.24c-0.04,0.07 -0.08,0.14 -0.12,0.22c0.001,0 0.003,0 0.004,0.001c0.039,0.01 0.059,0.015 0.059,0.015c0,0 -0.02,-0.005 -0.059,-0.015c-0.488,0.87 -0.754,1.854 -0.754,2.869v9.18c0,1.66 1.34,3 3,3h7h3c1.66,0 3,-1.34 3,-3v-8.52c0,-1.59 -0.63,-3.11 -1.76,-4.24l-1.24,-1.24l-1.41,-2.11c-0.37,-0.56 -0.99,-0.89 -1.66,-0.89z" fill="url(#color-2)"></path><path d="M5,7h10.12l-0.43,0.71c-0.07,0.12 -0.13,0.24 -0.18,0.37l-0.27,0.75c-0.05,0.15 -0.09,0.31 -0.12,0.48c-0.04,0.16 -0.06,0.33 -0.08,0.51l-0.04,0.66v11.52h-7c-1.66,0 -3,-1.34 -3,-3v-9.18c0,-1.015 0.266,-1.999 0.754,-2.869c0.079,0.02 0.157,0.049 0.246,0.049z" fill="url(#color-3)"></path><path d="M5.04,3.56c-0.45,-0.67 0.03,-1.56 0.83,-1.56h8.06c0.67,0 1.29,0.33 1.66,0.89l1.41,2.11h-11z" fill="url(#color-4)"></path></g></g></svg>