<svg xmlns="http://www.w3.org/2000/svg"  viewBox="0 0 24 24" width="48px" height="48px" baseProfile="basic"><linearGradient id="gZI6i09V9fnHsMEiNaAPaa" x1="3.648" x2="17.79" y1="6.21" y2="20.352" gradientUnits="userSpaceOnUse"><stop offset="0" stop-color="#fff" stop-opacity=".6"/><stop offset="1" stop-color="#fff" stop-opacity=".3"/></linearGradient><path fill="url(#gZI6i09V9fnHsMEiNaAPaa)" d="M12,2C6.477,2,2,6.477,2,12c0,1.592,0.382,3.091,1.043,4.427l-1.005,4.019 c-0.229,0.915,0.6,1.745,1.516,1.516l4.019-1.005C8.909,21.618,10.408,22,12,22c5.523,0,10-4.477,10-10C22,6.477,17.523,2,12,2z"/><linearGradient id="gZI6i09V9fnHsMEiNaAPab" x1="3.648" x2="17.79" y1="6.21" y2="20.352" gradientUnits="userSpaceOnUse"><stop offset="0" stop-color="#fff" stop-opacity=".6"/><stop offset=".493" stop-color="#fff" stop-opacity="0"/><stop offset=".997" stop-color="#fff" stop-opacity=".3"/></linearGradient><path fill="url(#gZI6i09V9fnHsMEiNaAPab)" d="M12,2.5c5.238,0,9.5,4.262,9.5,9.5 s-4.262,9.5-9.5,9.5c-1.462,0-2.877-0.334-4.205-0.991L7.63,20.427l-0.178,0.045l-4.019,1.005C3.371,21.492,3.308,21.5,3.246,21.5 c-0.229,0-0.443-0.106-0.588-0.292c-0.083-0.107-0.212-0.332-0.135-0.641l1.005-4.019l0.045-0.178l-0.082-0.165 C2.834,14.877,2.5,13.462,2.5,12C2.5,6.762,6.762,2.5,12,2.5 M12,2C6.477,2,2,6.477,2,12c0,1.592,0.382,3.091,1.043,4.427 l-1.005,4.019C1.836,21.257,2.463,22,3.246,22c0.101,0,0.204-0.012,0.309-0.038l4.019-1.005C8.909,21.618,10.408,22,12,22 c5.523,0,10-4.477,10-10C22,6.477,17.523,2,12,2L12,2z"/><linearGradient id="gZI6i09V9fnHsMEiNaAPac" x1="8.471" x2="15.462" y1="8.067" y2="15.059" gradientUnits="userSpaceOnUse"><stop offset="0" stop-color="#fff" stop-opacity=".7"/><stop offset=".519" stop-color="#fff" stop-opacity=".45"/><stop offset="1" stop-color="#fff" stop-opacity=".55"/></linearGradient><path fill="url(#gZI6i09V9fnHsMEiNaAPac)" d="M11.883,13.973h-0.006	c-0.67,0-1.187-0.605-1.072-1.265c0.35-2.013,1.917-2.083,1.917-3.333c0-0.347-0.06-1.124-0.896-1.124	c-0.452,0-0.718,0.289-0.873,0.597c-0.209,0.417-0.691,0.622-1.15,0.541l0,0C9.107,9.265,8.68,8.519,8.975,7.877	C9.397,6.96,10.261,6,11.972,6c2.776,0,3.148,2.174,3.148,3.196c0,2.416-1.799,2.506-2.172,3.898	C12.813,13.596,12.403,13.973,11.883,13.973z M13.325,16.533c0,0.412-0.127,0.76-0.382,1.043C12.687,17.858,12.352,18,11.94,18	c-0.414,0-0.748-0.142-1.003-0.424c-0.255-0.283-0.384-0.631-0.384-1.043c0-0.403,0.129-0.75,0.384-1.045	c0.255-0.293,0.589-0.439,1.003-0.439c0.412,0,0.747,0.146,1.003,0.439C13.198,15.783,13.325,16.131,13.325,16.533z"/></svg>