<svg xmlns="http://www.w3.org/2000/svg" xmlns:xlink="http://www.w3.org/1999/xlink" viewBox="0,0,255.99609,255.99609" width="48px" height="48px" fill-rule="nonzero"><defs><linearGradient x1="5.122" y1="9.204" x2="18.878" y2="22.96" gradientUnits="userSpaceOnUse" id="color-1"><stop offset="0" stop-color="#ca5d5d" stop-opacity="0.6"></stop><stop offset="1" stop-color="#ffffff" stop-opacity="0.3"></stop></linearGradient><linearGradient x1="5.122" y1="9.204" x2="18.878" y2="22.96" gradientUnits="userSpaceOnUse" id="color-2"><stop offset="0" stop-color="#ca5d5d" stop-opacity="0.6"></stop><stop offset="0.493" stop-color="#ffffff" stop-opacity="0"></stop><stop offset="0.997" stop-color="#ffffff" stop-opacity="0.3"></stop></linearGradient><linearGradient x1="9.134" y1="10.905" x2="14.862" y2="16.634" gradientUnits="userSpaceOnUse" id="color-3"><stop offset="0" stop-color="#ffffff" stop-opacity="0.7"></stop><stop offset="0.519" stop-color="#ffffff" stop-opacity="0.7098"></stop><stop offset="1" stop-color="#ffffff" stop-opacity="0.55"></stop></linearGradient></defs><g fill="none" fill-rule="nonzero" stroke="none" stroke-width="1" stroke-linecap="butt" stroke-linejoin="miter" stroke-miterlimit="10" stroke-dasharray="" stroke-dashoffset="0" font-family="none" font-weight="none" font-size="none" text-anchor="none" style="mix-blend-mode: normal"><g transform="scale(10.66667,10.66667)"><path d="M21.734,18.025l-8.016,-13.885c-0.354,-0.614 -1.01,-0.992 -1.718,-0.992c-0.708,0 -1.364,0.378 -1.718,0.992l-8.016,13.885c-0.354,0.614 -0.354,1.369 0,1.984c0.354,0.613 1.009,0.991 1.718,0.991h16.033c0.708,0 1.364,-0.378 1.718,-0.992c0.354,-0.614 0.354,-1.369 -0.001,-1.983z" fill="url(#color-1)"></path><path d="M12,3.648c0.529,0 1.021,0.284 1.285,0.742l8.016,13.885c0.264,0.458 0.264,1.026 0,1.484c-0.264,0.457 -0.756,0.741 -1.285,0.741h-16.032c-0.529,0 -1.021,-0.284 -1.285,-0.742c-0.264,-0.458 -0.264,-1.026 0,-1.484l8.016,-13.884c0.264,-0.458 0.756,-0.742 1.285,-0.742M12,3.148c-0.708,0 -1.364,0.378 -1.718,0.992l-8.016,13.885c-0.354,0.614 -0.354,1.37 0,1.984c0.354,0.613 1.009,0.991 1.718,0.991h16.033c0.708,0 1.364,-0.378 1.718,-0.992c0.354,-0.614 0.354,-1.37 0,-1.984l-8.017,-13.884c-0.354,-0.614 -1.01,-0.992 -1.718,-0.992z" fill="url(#color-2)"></path><path d="M13.179,17.746c0,0.353 -0.205,1.254 -1.185,1.254c-0.98,0 -1.173,-0.902 -1.173,-1.254c0,-0.345 0.218,-1.269 1.173,-1.269c0.955,0 1.185,0.924 1.185,1.269zM10.919,13.919v-4.351c0,-0.597 0.484,-1.081 1.081,-1.081v0c0.597,0 1.081,0.484 1.081,1.081v4.352c0,0.596 -0.484,1.08 -1.081,1.08v0c-0.597,0 -1.081,-0.484 -1.081,-1.081z" fill="url(#color-3)"></path></g></g></svg>